REM MD5 2b9c90be189d80712e16dbac101c2f81
FILE "Hyper PlayStation Re-mix 1999 No. 4 (Japan).bin" BINARY
  TRACK 01 MODE2/2352
    INDEX 01 00:00:00
  TRACK 02 AUDIO
    INDEX 00 33:57:00
    INDEX 01 34:00:00
  TRACK 03 AUDIO
    INDEX 00 34:04:50
    INDEX 01 34:07:50
REM LEADOUT 37:39:40
